<?xml version="1.0" encoding="UTF-8" standalone="no"?><!-- Generator: Gravit.io --><svg xmlns="http://www.w3.org/2000/svg" xmlns:xlink="http://www.w3.org/1999/xlink" style="isolation:isolate" viewBox="0 0 128 128" width="128pt" height="128pt"><defs><clipPath id="_clipPath_MpvAGhmJnlURrtgTRhUX4NzxGBcSrHIM"><rect width="128" height="128"/></clipPath></defs><g clip-path="url(#_clipPath_MpvAGhmJnlURrtgTRhUX4NzxGBcSrHIM)"><rect x="0" y="0" width="128" height="128" transform="matrix(1,0,0,1,0,0)" fill="rgb(0,0,0)"/><path d=" M 34.14 38.594 L 34.14 38.594 L 34.14 38.594 Q 35.276 38.594 36.132 38.018 L 36.132 38.018 L 36.132 38.018 Q 36.988 37.442 37.404 36.466 L 37.404 36.466 L 38.668 36.466 L 38.668 36.466 Q 38.14 37.97 36.924 38.834 L 36.924 38.834 L 36.924 38.834 Q 35.628 39.762 33.868 39.762 L 33.868 39.762 L 33.868 39.762 Q 31.548 39.762 30.108 38.178 L 30.108 38.178 L 30.108 38.178 Q 28.748 36.658 28.748 34.338 L 28.748 34.338 L 28.748 34.338 Q 28.748 32.018 30.108 30.498 L 30.108 30.498 L 30.108 30.498 Q 31.548 28.914 33.868 28.914 L 33.868 28.914 L 33.868 28.914 Q 35.628 28.914 36.924 29.842 L 36.924 29.842 L 36.924 29.842 Q 38.14 30.706 38.668 32.21 L 38.668 32.21 L 37.404 32.21 L 37.404 32.21 Q 36.988 31.234 36.132 30.658 L 36.132 30.658 L 36.132 30.658 Q 35.276 30.082 34.14 30.082 L 34.14 30.082 L 34.14 30.082 Q 33.004 30.082 32.252 30.41 L 32.252 30.41 L 32.252 30.41 Q 31.5 30.738 30.988 31.314 L 30.988 31.314 L 30.988 31.314 Q 29.948 32.482 29.948 34.338 L 29.948 34.338 L 29.948 34.338 Q 29.948 36.194 30.988 37.362 L 30.988 37.362 L 30.988 37.362 Q 32.076 38.594 34.14 38.594 Z  M 42.404 28.434 L 42.404 39.634 L 41.204 39.634 L 41.204 28.434 L 42.404 28.434 L 42.404 28.434 Z  M 48.956 31.506 L 48.956 31.506 L 48.956 31.506 Q 50.748 31.506 51.868 32.706 L 51.868 32.706 L 51.868 32.706 Q 52.924 33.858 52.924 35.634 L 52.924 35.634 L 52.924 35.634 Q 52.924 37.41 51.868 38.562 L 51.868 38.562 L 51.868 38.562 Q 50.748 39.762 48.956 39.762 L 48.956 39.762 L 48.956 39.762 Q 47.164 39.762 46.044 38.562 L 46.044 38.562 L 46.044 38.562 Q 44.988 37.41 44.988 35.634 L 44.988 35.634 L 44.988 35.634 Q 44.988 33.858 46.044 32.706 L 46.044 32.706 L 46.044 32.706 Q 47.164 31.506 48.956 31.506 Z  M 48.956 38.674 L 48.956 38.674 L 48.956 38.674 Q 50.252 38.674 51.004 37.778 L 51.004 37.778 L 51.004 37.778 Q 51.724 36.93 51.724 35.634 L 51.724 35.634 L 51.724 35.634 Q 51.724 34.338 51.004 33.49 L 51.004 33.49 L 51.004 33.49 Q 50.252 32.594 48.956 32.594 L 48.956 32.594 L 48.956 32.594 Q 47.66 32.594 46.908 33.49 L 46.908 33.49 L 46.908 33.49 Q 46.188 34.338 46.188 35.634 L 46.188 35.634 L 46.188 35.634 Q 46.188 36.93 46.908 37.778 L 46.908 37.778 L 46.908 37.778 Q 47.66 38.674 48.956 38.674 Z  M 61.748 39.634 L 61.748 38.354 L 61.748 38.354 Q 60.788 39.762 58.884 39.762 L 58.884 39.762 L 58.884 39.762 Q 57.156 39.762 56.068 38.562 L 56.068 38.562 L 56.068 38.562 Q 55.012 37.378 55.012 35.634 L 55.012 35.634 L 55.012 35.634 Q 55.012 33.89 56.068 32.706 L 56.068 32.706 L 56.068 32.706 Q 57.156 31.506 58.964 31.506 L 58.964 31.506 L 58.964 31.506 Q 60.772 31.506 61.748 32.93 L 61.748 32.93 L 61.748 31.634 L 62.948 31.634 L 62.948 39.634 L 61.748 39.634 L 61.748 39.634 Z  M 59.044 38.674 L 59.044 38.674 L 59.044 38.674 Q 60.34 38.674 61.092 37.778 L 61.092 37.778 L 61.092 37.778 Q 61.812 36.93 61.812 35.634 L 61.812 35.634 L 61.812 35.634 Q 61.812 34.338 61.092 33.49 L 61.092 33.49 L 61.092 33.49 Q 60.34 32.594 59.044 32.594 L 59.044 32.594 L 59.044 32.594 Q 57.764 32.594 56.964 33.49 L 56.964 33.49 L 56.964 33.49 Q 56.212 34.338 56.212 35.634 L 56.212 35.634 L 56.212 35.634 Q 56.212 36.93 56.964 37.778 L 56.964 37.778 L 56.964 37.778 Q 57.764 38.674 59.044 38.674 Z  M 72.764 31.634 L 69.548 34.786 L 73.004 39.634 L 71.532 39.634 L 68.732 35.618 L 67.228 37.106 L 67.228 39.634 L 66.028 39.634 L 66.028 28.434 L 67.228 28.434 L 67.228 35.602 L 71.084 31.634 L 72.764 31.634 L 72.764 31.634 Z  M 75.06 39.634 L 75.06 31.634 L 76.26 31.634 L 76.26 39.634 L 75.06 39.634 L 75.06 39.634 Z  M 75.012 28.722 L 76.308 28.722 L 76.308 30.29 L 75.012 30.29 L 75.012 28.722 L 75.012 28.722 Z  M 79.34 31.634 L 80.54 31.634 L 80.54 32.882 L 80.54 32.882 Q 80.972 32.306 81.596 31.906 L 81.596 31.906 L 81.596 31.906 Q 82.22 31.506 83.02 31.506 L 83.02 31.506 L 83.02 31.506 Q 83.82 31.506 84.396 31.73 L 84.396 31.73 L 84.396 31.73 Q 84.972 31.954 85.404 32.402 L 85.404 32.402 L 85.404 32.402 Q 86.396 33.378 86.396 34.978 L 86.396 34.978 L 86.396 39.634 L 85.196 39.634 L 85.196 35.01 L 85.196 35.01 Q 85.196 33.906 84.572 33.25 L 84.572 33.25 L 84.572 33.25 Q 83.948 32.594 82.956 32.594 L 82.956 32.594 L 82.956 32.594 Q 81.948 32.594 81.244 33.266 L 81.244 33.266 L 81.244 33.266 Q 80.54 33.954 80.54 35.026 L 80.54 35.026 L 80.54 39.634 L 79.34 39.634 L 79.34 31.634 L 79.34 31.634 Z  M 95.636 32.914 L 95.636 32.914 L 95.636 31.634 L 96.836 31.634 L 96.836 39.394 L 96.836 39.394 Q 96.836 41.122 95.852 42.026 L 95.852 42.026 L 95.852 42.026 Q 94.868 42.93 93.204 42.93 L 93.204 42.93 L 93.204 42.93 Q 91.54 42.93 90.604 42.29 L 90.604 42.29 L 90.604 42.29 Q 89.668 41.65 89.332 40.594 L 89.332 40.594 L 90.66 40.594 L 90.66 40.594 Q 91.172 41.842 92.996 41.842 L 92.996 41.842 L 92.996 41.842 Q 94.388 41.842 95.012 41.202 L 95.012 41.202 L 95.012 41.202 Q 95.636 40.562 95.636 39.314 L 95.636 39.314 L 95.636 38.21 L 95.636 38.21 Q 94.66 39.634 92.772 39.634 L 92.772 39.634 L 92.772 39.634 Q 91.044 39.634 89.956 38.45 L 89.956 38.45 L 89.956 38.45 Q 88.9 37.298 88.9 35.57 L 88.9 35.57 L 88.9 35.57 Q 88.9 33.842 89.956 32.69 L 89.956 32.69 L 89.956 32.69 Q 91.044 31.506 92.86 31.506 L 92.86 31.506 L 92.86 31.506 Q 94.676 31.506 95.636 32.914 Z  M 92.932 38.546 L 92.932 38.546 L 92.932 38.546 Q 93.588 38.546 94.1 38.314 L 94.1 38.314 L 94.1 38.314 Q 94.612 38.082 94.98 37.682 L 94.98 37.682 L 94.98 37.682 Q 95.7 36.85 95.7 35.57 L 95.7 35.57 L 95.7 35.57 Q 95.7 34.29 94.98 33.458 L 94.98 33.458 L 94.98 33.458 Q 94.196 32.594 92.932 32.594 L 92.932 32.594 L 92.932 32.594 Q 91.636 32.594 90.852 33.458 L 90.852 33.458 L 90.852 33.458 Q 90.1 34.306 90.1 35.57 L 90.1 35.57 L 90.1 35.57 Q 90.1 36.834 90.852 37.682 L 90.852 37.682 L 90.852 37.682 Q 91.636 38.546 92.932 38.546 Z  M 84.576 15.528 L 85.776 15.528 L 85.776 24.968 L 91.552 24.968 L 91.552 26.12 L 84.576 26.12 L 84.576 15.528 L 84.576 15.528 Z  M 97.144 17.992 L 97.144 17.992 L 97.144 17.992 Q 98.936 17.992 100.056 19.192 L 100.056 19.192 L 100.056 19.192 Q 101.112 20.344 101.112 22.12 L 101.112 22.12 L 101.112 22.12 Q 101.112 23.896 100.056 25.048 L 100.056 25.048 L 100.056 25.048 Q 98.936 26.248 97.144 26.248 L 97.144 26.248 L 97.144 26.248 Q 95.352 26.248 94.232 25.048 L 94.232 25.048 L 94.232 25.048 Q 93.176 23.896 93.176 22.12 L 93.176 22.12 L 93.176 22.12 Q 93.176 20.344 94.232 19.192 L 94.232 19.192 L 94.232 19.192 Q 95.352 17.992 97.144 17.992 Z  M 97.144 25.16 L 97.144 25.16 L 97.144 25.16 Q 98.44 25.16 99.192 24.264 L 99.192 24.264 L 99.192 24.264 Q 99.912 23.416 99.912 22.12 L 99.912 22.12 L 99.912 22.12 Q 99.912 20.824 99.192 19.976 L 99.192 19.976 L 99.192 19.976 Q 98.44 19.08 97.144 19.08 L 97.144 19.08 L 97.144 19.08 Q 95.848 19.08 95.096 19.976 L 95.096 19.976 L 95.096 19.976 Q 94.376 20.824 94.376 22.12 L 94.376 22.12 L 94.376 22.12 Q 94.376 23.416 95.096 24.264 L 95.096 24.264 L 95.096 24.264 Q 95.848 25.16 97.144 25.16 Z  M 109.936 19.4 L 109.936 19.4 L 109.936 18.12 L 111.136 18.12 L 111.136 25.88 L 111.136 25.88 Q 111.136 27.608 110.152 28.512 L 110.152 28.512 L 110.152 28.512 Q 109.168 29.416 107.504 29.416 L 107.504 29.416 L 107.504 29.416 Q 105.84 29.416 104.904 28.776 L 104.904 28.776 L 104.904 28.776 Q 103.968 28.136 103.632 27.08 L 103.632 27.08 L 104.96 27.08 L 104.96 27.08 Q 105.472 28.328 107.296 28.328 L 107.296 28.328 L 107.296 28.328 Q 108.688 28.328 109.312 27.688 L 109.312 27.688 L 109.312 27.688 Q 109.936 27.048 109.936 25.8 L 109.936 25.8 L 109.936 24.696 L 109.936 24.696 Q 108.96 26.12 107.072 26.12 L 107.072 26.12 L 107.072 26.12 Q 105.344 26.12 104.256 24.936 L 104.256 24.936 L 104.256 24.936 Q 103.2 23.784 103.2 22.056 L 103.2 22.056 L 103.2 22.056 Q 103.2 20.328 104.256 19.176 L 104.256 19.176 L 104.256 19.176 Q 105.344 17.992 107.16 17.992 L 107.16 17.992 L 107.16 17.992 Q 108.976 17.992 109.936 19.4 Z  M 107.232 25.032 L 107.232 25.032 L 107.232 25.032 Q 107.888 25.032 108.4 24.8 L 108.4 24.8 L 108.4 24.8 Q 108.912 24.568 109.28 24.168 L 109.28 24.168 L 109.28 24.168 Q 110 23.336 110 22.056 L 110 22.056 L 110 22.056 Q 110 20.776 109.28 19.944 L 109.28 19.944 L 109.28 19.944 Q 108.496 19.08 107.232 19.08 L 107.232 19.08 L 107.232 19.08 Q 105.936 19.08 105.152 19.944 L 105.152 19.944 L 105.152 19.944 Q 104.4 20.792 104.4 22.056 L 104.4 22.056 L 104.4 22.056 Q 104.4 23.32 105.152 24.168 L 105.152 24.168 L 105.152 24.168 Q 105.936 25.032 107.232 25.032 Z  M 19.84 25.08 L 19.84 25.08 L 19.84 25.08 Q 20.976 25.08 21.832 24.504 L 21.832 24.504 L 21.832 24.504 Q 22.688 23.928 23.104 22.952 L 23.104 22.952 L 24.368 22.952 L 24.368 22.952 Q 23.84 24.456 22.624 25.32 L 22.624 25.32 L 22.624 25.32 Q 21.328 26.248 19.568 26.248 L 19.568 26.248 L 19.568 26.248 Q 17.248 26.248 15.808 24.664 L 15.808 24.664 L 15.808 24.664 Q 14.448 23.144 14.448 20.824 L 14.448 20.824 L 14.448 20.824 Q 14.448 18.504 15.808 16.984 L 15.808 16.984 L 15.808 16.984 Q 17.248 15.4 19.568 15.4 L 19.568 15.4 L 19.568 15.4 Q 21.328 15.4 22.624 16.328 L 22.624 16.328 L 22.624 16.328 Q 23.84 17.192 24.368 18.696 L 24.368 18.696 L 23.104 18.696 L 23.104 18.696 Q 22.688 17.72 21.832 17.144 L 21.832 17.144 L 21.832 17.144 Q 20.976 16.568 19.84 16.568 L 19.84 16.568 L 19.84 16.568 Q 18.704 16.568 17.952 16.896 L 17.952 16.896 L 17.952 16.896 Q 17.2 17.224 16.688 17.8 L 16.688 17.8 L 16.688 17.8 Q 15.648 18.968 15.648 20.824 L 15.648 20.824 L 15.648 20.824 Q 15.648 22.68 16.688 23.848 L 16.688 23.848 L 16.688 23.848 Q 17.776 25.08 19.84 25.08 Z  M 30.376 17.992 L 30.376 17.992 L 30.376 17.992 Q 32.168 17.992 33.288 19.192 L 33.288 19.192 L 33.288 19.192 Q 34.344 20.344 34.344 22.12 L 34.344 22.12 L 34.344 22.12 Q 34.344 23.896 33.288 25.048 L 33.288 25.048 L 33.288 25.048 Q 32.168 26.248 30.376 26.248 L 30.376 26.248 L 30.376 26.248 Q 28.584 26.248 27.464 25.048 L 27.464 25.048 L 27.464 25.048 Q 26.408 23.896 26.408 22.12 L 26.408 22.12 L 26.408 22.12 Q 26.408 20.344 27.464 19.192 L 27.464 19.192 L 27.464 19.192 Q 28.584 17.992 30.376 17.992 Z  M 30.376 25.16 L 30.376 25.16 L 30.376 25.16 Q 31.672 25.16 32.424 24.264 L 32.424 24.264 L 32.424 24.264 Q 33.144 23.416 33.144 22.12 L 33.144 22.12 L 33.144 22.12 Q 33.144 20.824 32.424 19.976 L 32.424 19.976 L 32.424 19.976 Q 31.672 19.08 30.376 19.08 L 30.376 19.08 L 30.376 19.08 Q 29.08 19.08 28.328 19.976 L 28.328 19.976 L 28.328 19.976 Q 27.608 20.824 27.608 22.12 L 27.608 22.12 L 27.608 22.12 Q 27.608 23.416 28.328 24.264 L 28.328 24.264 L 28.328 24.264 Q 29.08 25.16 30.376 25.16 Z  M 36.928 18.12 L 38.128 18.12 L 38.128 19.368 L 38.128 19.368 Q 38.56 18.792 39.184 18.392 L 39.184 18.392 L 39.184 18.392 Q 39.808 17.992 40.608 17.992 L 40.608 17.992 L 40.608 17.992 Q 41.408 17.992 41.984 18.216 L 41.984 18.216 L 41.984 18.216 Q 42.56 18.44 42.992 18.888 L 42.992 18.888 L 42.992 18.888 Q 43.984 19.864 43.984 21.464 L 43.984 21.464 L 43.984 26.12 L 42.784 26.12 L 42.784 21.496 L 42.784 21.496 Q 42.784 20.392 42.16 19.736 L 42.16 19.736 L 42.16 19.736 Q 41.536 19.08 40.544 19.08 L 40.544 19.08 L 40.544 19.08 Q 39.536 19.08 38.832 19.752 L 38.832 19.752 L 38.832 19.752 Q 38.128 20.44 38.128 21.512 L 38.128 21.512 L 38.128 26.12 L 36.928 26.12 L 36.928 18.12 L 36.928 18.12 Z  M 52.904 20.264 L 51.688 20.264 L 51.688 20.264 Q 51.528 19.016 49.68 19.016 L 49.68 19.016 L 49.68 19.016 Q 47.832 19.016 47.832 20.168 L 47.832 20.168 L 47.832 20.168 Q 47.832 20.648 48.224 20.896 L 48.224 20.896 L 48.224 20.896 Q 48.616 21.144 49.208 21.304 L 49.208 21.304 L 49.208 21.304 Q 49.8 21.464 50.496 21.6 L 50.496 21.6 L 50.496 21.6 Q 51.192 21.736 51.784 21.984 L 51.784 21.984 L 51.784 21.984 Q 52.376 22.232 52.768 22.664 L 52.768 22.664 L 52.768 22.664 Q 53.16 23.096 53.16 23.848 L 53.16 23.848 L 53.16 23.848 Q 53.16 25.016 52.28 25.632 L 52.28 25.632 L 52.28 25.632 Q 51.4 26.248 49.896 26.248 L 49.896 26.248 L 49.896 26.248 Q 48.296 26.248 47.352 25.448 L 47.352 25.448 L 47.352 25.448 Q 46.488 24.744 46.424 23.608 L 46.424 23.608 L 47.672 23.608 L 47.672 23.608 Q 47.784 24.712 48.92 25.096 L 48.92 25.096 L 48.92 25.096 Q 49.336 25.224 49.744 25.224 L 49.744 25.224 L 49.744 25.224 Q 50.152 25.224 50.504 25.176 L 50.504 25.176 L 50.504 25.176 Q 50.856 25.128 51.192 25 L 51.192 25 L 51.192 25 Q 51.96 24.696 51.96 23.96 L 51.96 23.96 L 51.96 23.96 Q 51.96 23.464 51.568 23.2 L 51.568 23.2 L 51.568 23.2 Q 51.176 22.936 50.584 22.768 L 50.584 22.768 L 50.584 22.768 Q 49.992 22.6 49.296 22.464 L 49.296 22.464 L 49.296 22.464 Q 48.6 22.328 48.008 22.088 L 48.008 22.088 L 48.008 22.088 Q 47.416 21.848 47.024 21.432 L 47.024 21.432 L 47.024 21.432 Q 46.632 21.016 46.632 20.28 L 46.632 20.28 L 46.632 20.28 Q 46.632 19.192 47.424 18.592 L 47.424 18.592 L 47.424 18.592 Q 48.216 17.992 49.768 17.992 L 49.768 17.992 L 49.768 17.992 Q 51.24 17.992 52.088 18.696 L 52.088 18.696 L 52.088 18.696 Q 52.792 19.288 52.904 20.264 L 52.904 20.264 L 52.904 20.264 Z  M 59.168 17.992 L 59.168 17.992 L 59.168 17.992 Q 60.96 17.992 62.08 19.192 L 62.08 19.192 L 62.08 19.192 Q 63.136 20.344 63.136 22.12 L 63.136 22.12 L 63.136 22.12 Q 63.136 23.896 62.08 25.048 L 62.08 25.048 L 62.08 25.048 Q 60.96 26.248 59.168 26.248 L 59.168 26.248 L 59.168 26.248 Q 57.376 26.248 56.256 25.048 L 56.256 25.048 L 56.256 25.048 Q 55.2 23.896 55.2 22.12 L 55.2 22.12 L 55.2 22.12 Q 55.2 20.344 56.256 19.192 L 56.256 19.192 L 56.256 19.192 Q 57.376 17.992 59.168 17.992 Z  M 59.168 25.16 L 59.168 25.16 L 59.168 25.16 Q 60.464 25.16 61.216 24.264 L 61.216 24.264 L 61.216 24.264 Q 61.936 23.416 61.936 22.12 L 61.936 22.12 L 61.936 22.12 Q 61.936 20.824 61.216 19.976 L 61.216 19.976 L 61.216 19.976 Q 60.464 19.08 59.168 19.08 L 59.168 19.08 L 59.168 19.08 Q 57.872 19.08 57.12 19.976 L 57.12 19.976 L 57.12 19.976 Q 56.4 20.824 56.4 22.12 L 56.4 22.12 L 56.4 22.12 Q 56.4 23.416 57.12 24.264 L 57.12 24.264 L 57.12 24.264 Q 57.872 25.16 59.168 25.16 Z  M 66.92 14.92 L 66.92 26.12 L 65.72 26.12 L 65.72 14.92 L 66.92 14.92 L 66.92 14.92 Z  M 73.568 25.16 L 73.568 25.16 L 73.568 25.16 Q 75.184 25.16 75.888 23.816 L 75.888 23.816 L 77.2 23.816 L 77.2 23.816 Q 76.784 24.904 75.88 25.576 L 75.88 25.576 L 75.88 25.576 Q 74.976 26.248 73.552 26.248 L 73.552 26.248 L 73.552 26.248 Q 71.744 26.248 70.608 25.048 L 70.608 25.048 L 70.608 25.048 Q 69.504 23.88 69.504 22.12 L 69.504 22.12 L 69.504 22.12 Q 69.504 20.344 70.56 19.192 L 70.56 19.192 L 70.56 19.192 Q 71.68 17.992 73.472 17.992 L 73.472 17.992 L 73.472 17.992 Q 75.264 17.992 76.384 19.192 L 76.384 19.192 L 76.384 19.192 Q 77.44 20.344 77.44 22.12 L 77.44 22.12 L 77.44 22.6 L 70.736 22.6 L 70.736 22.6 Q 70.864 23.704 71.616 24.424 L 71.616 24.424 L 71.616 24.424 Q 72.384 25.16 73.568 25.16 Z  M 73.472 19.08 L 73.472 19.08 L 73.472 19.08 Q 72.368 19.08 71.616 19.768 L 71.616 19.768 L 71.616 19.768 Q 70.912 20.424 70.752 21.48 L 70.752 21.48 L 76.192 21.48 L 76.192 21.48 Q 76.032 20.424 75.328 19.768 L 75.328 19.768 L 75.328 19.768 Q 74.576 19.08 73.472 19.08 Z " fill="rgb(255,255,255)"/><path d=" M 71.699 72.498 C 70.007 72.498 68.629 70.815 68.629 68.73 C 68.629 66.653 70.007 64.97 71.699 64.97 C 73.392 64.97 74.763 66.653 74.763 68.73 C 74.763 70.815 73.392 72.498 71.699 72.498 Z  M 62.678 78.037 C 60.514 78.037 58.617 76.427 57.607 74.036 L 67.756 74.028 C 66.746 76.427 64.85 78.037 62.678 78.037 Z  M 53.986 72.498 C 52.293 72.498 50.916 70.815 50.916 68.73 C 50.916 66.653 52.293 64.97 53.986 64.97 C 55.679 64.97 57.05 66.653 57.05 68.73 C 57.05 70.815 55.679 72.498 53.986 72.498 Z  M 99.383 72.015 C 97.855 70.767 93.243 71.379 93.243 71.379 C 93.243 71.379 97.448 66.991 96.654 66.371 C 95.861 65.743 89.215 70.775 89.189 68.166 C 89.163 65.558 86.315 62.176 85.594 63.07 C 84.872 63.964 87.07 66.355 85.876 67.828 C 84.675 69.294 83.284 72.675 83.724 74.221 C 83.396 74.447 81.762 74.825 79.84 75.219 C 81.887 52.604 53.028 40.874 47.032 71.58 C 46.815 72.699 46.645 73.794 46.526 74.873 C 45.372 74.615 44.512 74.382 44.276 74.221 C 44.716 72.675 43.325 69.294 42.125 67.828 C 40.931 66.355 43.128 63.964 42.407 63.07 C 41.679 62.176 38.838 65.558 38.812 68.166 C 38.786 70.775 32.14 65.743 31.346 66.371 C 30.552 66.991 34.751 71.379 34.751 71.379 C 34.751 71.379 30.146 70.767 28.617 72.015 C 27.081 73.271 34.266 74.14 34.482 74.793 C 34.692 75.436 29.594 78.287 30.119 79.39 C 30.644 80.492 38.831 79.1 40.215 79.751 C 40.957 80.098 43.915 82.892 46.907 85.355 C 51.217 108.22 77.393 119.25 77.393 119.25 C 74.835 115.547 74.48 104.798 77.426 88.085 C 81.178 85.717 86.722 80.243 87.785 79.751 C 89.169 79.1 97.356 80.492 97.881 79.39 C 98.406 78.287 93.302 75.436 93.518 74.793 C 93.735 74.14 100.919 73.271 99.383 72.015 Z " fill="rgb(255,153,0)"/></g></svg>